<?xml version="1.0" encoding="UTF-8" standalone="no"?>
<!-- Created with Inkscape (http://www.inkscape.org/) -->

<svg
   width="264.76828mm"
   height="358.36621mm"
   viewBox="0 0 264.76828 358.36621"
   version="1.1"
   id="svg5"
   xml:space="preserve"
   xmlns="http://www.w3.org/2000/svg"
   xmlns:svg="http://www.w3.org/2000/svg"><defs
     id="defs2"><clipPath
       clipPathUnits="userSpaceOnUse"
       id="clipPath62410"><path
         d="M 0,0 H 708.661 V 481.89 H 0 Z"
         id="path62408" /></clipPath><clipPath
       clipPathUnits="userSpaceOnUse"
       id="clipPath62460"><path
         d="M 0,0 H 708.661 V 481.89 H 0 Z"
         id="path62458" /></clipPath><clipPath
       clipPathUnits="userSpaceOnUse"
       id="clipPath62484"><path
         d="M 0,0 H 708.661 V 481.89 H 0 Z"
         id="path62482" /></clipPath><clipPath
       clipPathUnits="userSpaceOnUse"
       id="clipPath62502"><path
         d="M 0,0 H 708.661 V 481.89 H 0 Z"
         id="path62500" /></clipPath></defs><g
     id="layer1"
     transform="translate(-41.301673,-45.975383)"><path
       class="st0"
       d="M 306.06996,45.975383 H 41.301673 V 404.34158 H 306.06996 Z"
       id="path7681"
       style="fill:#ffffff;stroke:none;stroke-width:2.32253" /><g
       id="g1654"><path
         id="polyline7683"
         d="M 302.12165,49.923684 V 400.62553 H 45.01772 V 49.923684 Z"
         style="fill:#1b1615;fill-opacity:1;stroke:none;stroke-width:2.32253" /><g
         id="g1643"><g
           id="g1630"><path
             id="rect7685"
             d="M 58.952891,62.92985 H 288.41875 v 53.41816 H 58.952891 Z"
             style="fill:#ffffff;stroke:none;stroke-width:2.32253" /><path
             d="m 271.46428,73.148964 h -4.4128 v 33.212166 h 4.4128 c 6.96759,0 8.3611,-2.09027 8.3611,-9.290117 V 82.439092 c 0,-7.4321 -1.39351,-9.290128 -8.3611,-9.290128 z m 4.18055,26.012328 c 0,2.787038 -0.69675,3.716038 -3.4838,3.716038 h -0.929 V 76.632771 h 0.929 c 2.78705,0 3.4838,0.69675 3.4838,3.716043 z M 264.03218,76.632771 v -3.483807 h -9.75461 v 32.979916 h 9.98688 v -3.4838 h -5.80632 V 90.567942 h 5.3418 v -3.483793 h -5.3418 V 76.632771 Z m -17.88346,-3.483793 h 4.41279 v 32.979902 h -4.41279 z m -7.66435,14.399671 V 76.632771 h 5.57407 v -3.483807 h -9.98688 v 33.212166 h 4.41281 V 91.032442 h 5.34182 V 87.548649 Z M 226.17496,73.148978 h 4.41281 v 32.979902 h -4.41281 z m -1.62576,3.483793 v -3.483807 h -12.30941 v 3.483807 h 3.94831 v 29.728359 h 4.41279 V 76.632771 Z m -20.67051,-3.483807 h -5.80632 v 33.212166 h 4.18054 V 91.032442 h 0.92902 c 3.01929,0 3.4838,0.696764 3.4838,3.716043 v 11.612645 h 4.18055 V 94.748485 c 0,-3.716043 -0.92902,-5.341807 -4.64506,-5.574071 3.48379,-0.464501 4.64506,-1.858015 4.64506,-5.109558 v -5.341821 c 0,-4.180543 -2.32253,-5.574071 -6.96759,-5.574071 z m 2.55478,10.683642 c 0,3.019279 -0.69676,3.716043 -3.25154,3.716043 h -0.92902 V 76.400507 h 0.92902 c 2.78704,0 3.25154,0.929014 3.25154,3.716057 z m -11.38039,-7.199835 v -3.483807 h -9.75462 v 32.979916 h 10.21913 v -3.4838 h -6.03858 V 90.567942 h 5.34182 v -3.483793 h -5.34182 V 76.632771 Z m -16.7222,22.993035 c 0,2.554774 -0.23227,3.716044 -1.62578,3.716044 -1.85801,0 -2.09028,-1.39352 -2.09028,-4.645058 V 80.581064 c 0,-3.251543 0.23227,-4.645057 2.09028,-4.645057 1.39351,0 1.85803,1.393514 1.85803,3.948293 v 2.322528 h 4.18054 v -2.554779 c 0,-5.109557 -1.16126,-7.199835 -6.27082,-7.199835 -5.10956,0 -6.27082,2.554778 -6.27082,8.825614 v 16.48995 c 0,6.270822 1.39351,8.825612 6.27082,8.825612 4.87731,0 6.27082,-2.09028 6.27082,-7.199848 v -3.019279 h -4.41279 z m -25.31557,6.735324 h 4.4128 V 92.425956 l 5.10957,-19.276992 h -4.18056 l -2.78703,14.631935 -3.01929,-14.631935 h -4.41281 l 4.87732,19.276992 z m -9.05786,-6.735324 c 0,2.554774 0,3.716044 -1.85803,3.716044 -1.85801,0 -2.09028,-1.39352 -2.09028,-4.645058 V 80.581064 c 0,-3.251543 0.23227,-4.645057 2.09028,-4.645057 1.39352,0 1.85803,1.393514 1.85803,3.948293 v 2.322528 h 4.18054 v -2.554779 c 0,-5.109557 -1.16126,-7.199835 -6.03857,-7.199835 -4.87731,0 -6.27083,2.554778 -6.27083,8.825614 v 16.48995 c 0,6.270822 1.39352,8.825612 6.27083,8.825612 4.87731,0 6.27084,-2.09028 6.27084,-7.199848 v -3.019279 h -4.41281 z m -20.67051,-26.476842 -5.34182,33.212166 h 3.94831 l 1.16126,-8.361102 h 5.57406 l 1.16127,8.361102 h 4.4128 l -5.10955,-33.212166 z m 0.4645,21.367271 2.32253,-17.651214 h 0.23225 l 2.09028,17.651214 z m -15.09643,11.844895 h 5.57407 l 4.18054,-33.212166 h -3.71604 l -3.01928,27.870356 h -0.23226 l -3.25153,-27.870356 h -4.18056 z M 97.97138,73.148978 h 4.41279 v 32.979902 h -4.41279 z m -8.12885,16.025436 c 3.483793,-0.464501 4.645057,-1.858015 4.645057,-5.109558 v -5.341821 c 0,-4.180543 -2.090278,-5.574071 -6.967585,-5.574071 H 81.71368 v 33.212166 h 4.180543 V 91.032442 h 0.929015 c 3.019292,0 3.483792,0.696764 3.483792,3.716043 v 11.612645 h 4.412807 V 94.748485 c 0,-3.716043 -1.161264,-5.341807 -4.877307,-5.574071 z M 86.823238,87.548649 H 85.894223 V 76.400507 h 0.929015 c 2.787028,0 3.251542,0.929014 3.251542,3.716057 v 3.716042 c 0.23225,3.019279 -0.464514,3.716043 -3.251542,3.716043 z M 72.423552,73.148964 h -4.877304 v 33.212166 h 3.948304 V 92.193706 h 1.161264 c 4.877307,0 6.967586,-1.625764 6.967586,-6.038571 v -6.967586 c 0,-4.645057 -2.090279,-6.038585 -7.19985,-6.038585 z m 3.019293,11.612657 c 0,3.019278 -0.4645,3.948292 -3.019293,3.948292 h -0.69675 V 76.400507 h 0.69675 c 2.554793,0 3.019293,0.929014 3.019293,3.948307 z"
             style="fill:#1b1615;fill-opacity:1;stroke:none;stroke-width:2.32253"
             id="path7723" /></g><path
           d="m 280.05763,367.18111 c 3.4838,-1.16126 7.43209,-3.48379 7.43209,-6.73532 0,-6.27083 -9.98687,-7.8966 -22.76077,-7.8966 h -27.17359 v 31.35414 h 27.40584 c 14.63193,0 24.38655,-2.55478 24.38655,-9.52237 0,-3.48379 -3.25153,-6.27083 -9.29012,-7.19985 z m -23.92205,-7.43208 h 6.50309 c 3.94831,0 7.66435,0 7.66435,2.55478 0,1.85803 -2.78704,2.78704 -6.50309,2.78704 h -7.66435 z m 7.8966,16.7222 h -8.12885 v -5.80632 h 6.03859 c 6.03857,0 10.21911,0.23226 10.21911,3.01929 0,2.32253 -3.48379,2.78703 -8.12885,2.78703 z m -37.85722,0.92903 c 0,-6.27084 -3.71604,-6.9676 -9.52236,-8.36112 6.50308,-0.92901 9.52236,-4.18055 9.52236,-7.66435 0,-6.03857 -6.27082,-9.05786 -25.08331,-9.05786 h -26.70908 v 31.5864 h 18.58023 v -10.91589 l 5.57407,-0.23225 c 8.59336,0 9.98688,1.39351 9.98688,5.34182 0,1.85801 0.23225,3.71604 0.92901,5.57407 h 18.81248 v -0.92902 c -2.32253,0 -2.09028,-1.39351 -2.09028,-5.3418 z m -26.01231,-11.38041 h -7.19985 v -6.27082 h 8.59336 c 4.41281,0 7.4321,1.16126 7.4321,3.25154 0,2.09028 -3.01929,3.01928 -8.82561,3.01928 z m -67.35334,-5.34182 c 0,-1.16127 1.85801,-1.85802 5.80632,-1.85802 1.62578,0 3.25154,0.23225 4.87731,0.69675 1.16126,0.23227 2.09027,0.92903 2.78704,2.0903 h 17.65121 c -1.39351,-5.57409 -8.59335,-9.98688 -24.1543,-9.98688 -14.16742,0 -24.38655,3.25153 -24.38655,9.98688 0,11.84489 32.5154,8.8256 32.5154,13.47067 0,1.62576 -3.01928,2.32253 -7.66433,2.32253 -1.85803,0 -3.4838,-0.23227 -5.34182,-0.69677 -1.39353,-0.23226 -2.5548,-1.16126 -3.0193,-2.55479 h -17.65121 c 0.4645,5.57407 10.21913,10.45139 25.08331,10.45139 15.56094,0 26.47683,-3.48379 26.47683,-10.91589 -0.46451,-11.38039 -32.97991,-8.3611 -32.97991,-13.00617 z m -26.94133,-0.929 v -7.4321 H 59.649651 v 31.5864 h 47.147329 v -7.4321 H 78.229888 v -4.87731 h 23.225282 v -7.43208 H 78.229888 v -4.41281 z"
           style="fill:#ffffff;stroke:none;stroke-width:2.32253"
           id="path7733" /><g
           id="g1634"><path
             id="rect7687"
             d="M 59.417398,129.58641 H 288.41875 V 338.14952 H 59.417398 Z"
             style="fill:#ffffff;stroke:none;stroke-width:2.32253" /><path
             id="path7741"
             d="m 149.07874,137.48013 c -5.61268,0.18542 -9.27236,3.35639 -12.32068,8.36435 -4.64505,-3.9483 -9.52208,-5.57482 -15.3284,-3.25229 -5.80632,2.32253 -8.13021,6.96745 -8.82696,13.00602 l -1.85667,-0.46417 c -12.077158,-2.55477 -19.509677,7.66445 -16.490385,16.95457 0.4645,1.62576 -0.23246,2.08995 -1.858224,2.55447 -8.12885,1.85803 -12.309407,8.12978 -10.683629,15.79413 0.929015,2.78703 2.090671,5.5742 3.716449,8.36124 -4.645057,2.55478 -7.66533,7.6642 -7.200815,13.00602 0.23225,6.27082 4.181383,9.98706 9.523204,12.54184 -3.019279,5.10957 -4.645421,9.98643 -1.626143,15.5605 2.787043,5.57407 7.895956,7.43135 13.702277,7.43135 v 3.94853 c 0,1.62577 0.233296,3.48474 0.697796,5.11052 2.55478,6.96759 9.98698,10.45027 16.95457,7.89551 2.55478,-0.92903 3.2516,-0.23222 4.18061,2.0903 0.69676,1.85802 1.62512,3.4849 3.01863,4.87843 5.10956,5.34181 13.47098,5.57372 18.81279,0.46416 0.69676,-0.69676 2.32239,-2.09032 2.32239,-2.09032 3.25154,5.10958 7.66352,7.43203 13.93436,6.50302 6.03857,-0.92901 9.0589,-5.34181 11.38144,-10.68363 5.34181,2.78703 10.45092,3.48379 15.56049,0 5.10956,-3.48379 6.27125,-8.59375 5.80675,-14.40008 5.80632,0 10.9149,-1.16134 14.16644,-6.27092 3.25155,-5.10957 2.32287,-10.45077 -0.46417,-15.79258 5.57407,-2.32253 9.52253,-5.57494 10.45154,-11.61352 0.92902,-6.03857 -1.85794,-10.45056 -6.503,-13.93435 0.23225,-0.4645 0.464,-0.69746 0.69625,-1.16198 2.09028,-1.85801 3.48385,-4.41222 4.18061,-7.19926 1.62576,-7.43208 -3.01806,-14.63235 -10.2179,-16.49038 -1.85801,-0.4645 -1.62631,-1.39304 -1.39406,-2.78655 0.69677,-2.55478 0.69642,-5.3423 0.46418,-7.89708 -1.39353,-6.96759 -6.96765,-10.45188 -14.86425,-9.98738 -2.09028,0.23226 -3.01847,-0.23178 -3.25073,-2.78656 v -0.23208 c -0.69675,-6.96758 -6.73624,-12.07645 -13.70382,-11.61195 -3.25154,0.4645 -6.50237,1.3932 -9.52167,2.55447 -2.55477,-4.4128 -6.03893,-8.12898 -12.30975,-8.36124 -0.39194,-0.0146 -0.77535,-0.0155 -1.14952,-0.003 z m -0.9408,11.61508 c 32.28315,0 58.29501,26.0134 58.29501,58.29655 0,32.28315 -26.01186,58.295 -58.29501,58.295 -32.28315,0 -58.295004,-26.2441 -58.295004,-58.295 0,-32.28315 26.011854,-58.29655 58.295004,-58.29655 z m -8.36123,6.73508 c -5.34181,0.92901 -10.21935,2.55575 -14.63216,5.11051 1.62577,1.39353 3.25231,2.7871 5.34259,4.18063 2.78703,-4.18056 5.80578,-7.20086 9.28957,-9.29114 z m 17.18663,0 c 3.25154,1.85803 6.50271,5.11075 9.05749,9.05905 2.09028,-1.39352 3.71682,-2.78711 5.34259,-4.18061 -4.41279,-2.32253 -9.29051,-3.94943 -14.40008,-4.87844 z m -10.45154,1.16198 c -5.10956,0.69676 -9.52206,4.18121 -13.2381,9.7553 3.94829,1.85801 8.36079,3.48264 13.2381,3.71489 z m 3.48436,0 v 13.47019 c 5.10956,-0.23225 9.52206,-1.62463 13.23811,-3.71489 -3.71605,-5.57409 -8.36079,-9.05854 -13.23811,-9.7553 z m -28.10234,5.57469 c -5.57407,3.48379 -10.68386,7.89611 -14.63216,13.47018 2.32253,2.55478 6.96764,6.73582 14.86424,9.98738 1.62577,-6.73535 3.71599,-13.00714 6.50302,-17.88444 -2.55478,-1.85803 -4.87708,-3.7151 -6.7351,-5.57312 z m 52.95397,0 c -1.85802,1.62576 -4.18188,3.71526 -6.73664,5.34102 2.78703,4.87731 4.87724,10.9153 6.503,17.88289 7.66435,-3.01929 12.30946,-6.96687 14.86424,-9.52165 -4.18056,-5.57407 -9.05653,-10.21847 -14.6306,-13.70226 z m -43.20024,7.19924 c -2.78702,4.87732 -4.8774,10.68339 -6.27092,17.41873 5.57408,1.85801 12.54182,3.25212 21.13517,3.48437 v -16.72247 c -5.57408,-0.23225 -10.68369,-1.8581 -14.86425,-4.18063 z m 33.21287,0 c -4.18056,2.32253 -9.05794,3.94838 -14.86426,4.18063 v 16.72247 c 8.59337,-0.23225 15.56111,-1.62636 21.13519,-3.48437 -1.62579,-6.73534 -3.71615,-12.54141 -6.27093,-17.41873 z m -59.45698,9.05749 c -4.87731,7.8966 -7.896728,16.9554 -8.361242,26.47777 h 22.761322 c 0.23225,-5.57408 0.69712,-10.91665 1.62614,-16.02622 -8.12885,-3.25155 -13.23919,-7.43226 -16.02622,-10.45155 z m 85.93318,0.46416 c -3.01928,3.0193 -8.12789,6.96793 -16.25674,10.21947 0.929,4.87732 1.62458,10.45216 1.62458,16.02622 h 22.52923 c -0.23225,-9.52237 -3.25202,-18.58134 -7.89707,-26.24569 z m -66.65625,11.38145 c -0.92901,4.64505 -1.39406,9.75468 -1.39406,14.86424 H 146.5118 V 194.1521 c -8.8256,-0.23225 -16.0251,-1.62479 -21.83143,-3.4828 z m 47.14721,0 c -5.80632,1.85801 -13.0058,3.25055 -21.83142,3.4828 v 11.38144 h 23.22548 c 0,-5.10956 -0.69729,-10.21919 -1.39406,-14.86424 z m -74.5533,18.34705 c 0.232264,9.52236 3.25202,18.58133 7.89708,26.24567 3.01927,-3.01928 8.12945,-7.20016 16.2583,-10.21945 -0.69677,-5.10957 -1.39406,-10.45215 -1.39406,-16.02622 z m 26.01203,0 c 0.23227,5.10956 0.6973,10.21919 1.39406,14.86424 5.80633,-2.09026 13.00583,-3.25055 21.83143,-3.48281 v -11.38143 z m 26.70985,0 v 11.38143 c 8.82562,0.23226 16.0251,1.6248 21.83142,3.48281 0.92902,-4.64505 1.39406,-9.75468 1.39406,-14.86424 z m 26.94193,0 c -0.23225,5.80632 -0.69713,11.14875 -1.62614,16.2583 7.8966,3.25155 13.00555,7.43226 15.79258,10.45155 4.87731,-7.8966 7.89691,-16.95524 8.12916,-26.70985 z m 46.44941,5.34259 c -0.23225,0.23227 -0.23208,0.69608 -0.23208,0.92834 0,6.03858 -2.78612,11.84583 -7.66343,15.79414 -0.69676,0.929 -0.93006,2.08945 -0.6978,3.25072 1.62575,9.75463 -4.41199,19.27803 -13.93436,22.06507 -0.98379,0.2636 -2.75386,0.74453 -2.75386,0.74453 1.14778,1.98801 2.52177,2.73827 2.52177,2.73827 l 45.98524,24.61954 v -26.47777 c 0,-1.39351 0.80269,-2.37774 1.85823,-3.25073 l 22.52923,-14.63216 z m -77.10777,9.52165 c -8.59337,0.23227 -15.56111,1.62635 -21.13518,3.48437 1.62577,6.73533 3.71614,12.54142 6.27092,17.41872 4.41281,-2.32252 9.05792,-3.94836 14.86426,-4.18061 z m 3.71643,0 v 16.49039 c 5.57407,0.46451 10.6837,2.09018 14.86426,4.4127 2.78703,-4.8773 4.8774,-10.68339 6.27093,-17.41872 -5.57407,-1.85802 -12.54182,-3.2521 -21.13519,-3.48437 z m -27.87026,4.64479 c -7.66435,3.25155 -12.54154,7.20051 -15.09632,9.75529 3.94829,5.57407 9.05792,10.21848 14.86424,13.70228 1.85802,-1.85803 4.18032,-3.71509 6.7351,-5.57312 -2.78703,-4.87731 -5.10949,-11.14911 -6.50302,-17.88445 z m 52.48825,0.23364 c -1.39351,6.73533 -3.71597,13.00557 -6.503,17.88289 2.55476,1.62576 4.64498,3.48301 6.503,5.34104 5.57407,-3.4838 10.45162,-7.89613 14.63216,-13.4702 -2.32253,-2.32253 -6.96781,-6.50219 -14.63216,-9.75373 z m -28.10235,15.09632 c -5.10956,0.23225 -9.52206,1.62463 -13.2381,3.7149 3.71604,5.80633 8.36079,9.29062 13.2381,9.98738 z m 3.48436,0.2321 v 13.70226 c 4.87732,-0.69675 9.28999,-4.17967 13.00603,-9.75373 -3.71604,-2.09028 -8.12871,-3.71628 -13.00603,-3.94853 z m -19.7411,5.34102 c -1.85801,1.39352 -3.71683,3.0192 -5.34259,4.41271 4.64506,2.32253 9.5226,3.94941 14.63216,4.87841 -3.48379,-2.09026 -6.50253,-5.11058 -9.28957,-9.29112 z m 35.99942,0.23208 c -2.78705,3.9483 -5.80751,6.96878 -9.05904,9.05904 4.8773,-0.929 9.75519,-2.55588 14.16798,-4.87841 -1.39352,-1.39351 -3.25091,-2.7871 -5.10894,-4.18063 z m 29.72693,15.09634 c -6.50309,7.66435 -10.91517,9.29129 -20.20528,9.05904 -1.16127,0 -2.32189,0.69558 -3.01865,1.62459 -3.71604,4.87731 -9.52347,7.43307 -15.56204,7.20082 -3.25156,-0.4645 -6.50221,-0.92923 -9.75375,-1.85823 l 21.13518,51.09574 16.95456,-20.90308 c 0.69675,-0.92901 1.90721,-1.66803 3.01863,-1.62615 3.4838,0.23226 6.73566,0.69747 10.21945,1.16197 l 16.95456,1.85823 z"
             style="fill:#085ea9;stroke:none;stroke-width:2.32253" /></g></g></g></g><style
     type="text/css"
     id="style7679">
	.st0{fill:#FFFFFF;}
	.st1{fill:#085EA9;}
</style></svg>
