<svg xmlns="http://www.w3.org/2000/svg" viewBox="0 0 45.4 68"><defs><style>.cls-1{fill:#fff;}.cls-2{fill:#231f20;}</style></defs><title>Ресурс 1</title><g id="Слой_2" data-name="Слой 2"><g id="Layer_1" data-name="Layer 1"><polygon class="cls-1" points="45.4 0 0 0 0 68 45.4 68 45.4 0"/><polyline class="cls-2" points="44.7 0.7 44.7 67.3 0.7 67.3 0.7 0.7 44.7 0.7"/><rect class="cls-1" x="2.8" y="2.7" width="39.9" height="18.7"/><rect class="cls-1" x="2.8" y="23.5" width="39.9" height="34.2"/><polygon class="cls-1" points="2.8 65.2 2.8 59.7 10.8 59.7 10.8 61 6 61 6 61.8 10 61.8 10 63.1 6 63.1 6 63.9 10.9 63.9 10.9 65.2 2.8 65.2"/><path class="cls-1" d="M17.7,61.3a.7.7,0,0,0-.5-.4h-.7c-.7,0-1,.1-1,.3,0,.8,5.6.3,5.6,2.3,0,1.3-1.9,1.9-4.6,1.9s-4.3-.8-4.3-1.8h3.1a1,1,0,0,0,.5.4,2.77,2.77,0,0,0,.9.1c.8,0,1.3-.1,1.3-.4,0-.8-5.6-.3-5.6-2.4,0-1.2,1.8-1.7,4.3-1.7,2.7,0,4,.8,4.2,1.7Z"/><path class="cls-1" d="M25.9,62.1h1.3c1,0,1.5-.1,1.5-.5s-.5-.6-1.3-.6H25.9Zm0,1.2v1.9H22.7V59.7h4.6c3.3,0,4.3.5,4.3,1.6,0,.6-.5,1.2-1.6,1.3,1,.2,1.7.3,1.7,1.4,0,.7,0,1,.3,1v.2H28.7a1.85,1.85,0,0,1-.2-1c0-.7-.2-1-1.7-1h-.9Z"/><path class="cls-1" d="M36.8,61v.9h1.3c.6,0,1.1-.2,1.1-.5s-.6-.4-1.3-.4Zm0,1.9v1h1.4c.8,0,1.4-.1,1.4-.5s-.7-.5-1.8-.5Zm-3.2,2.3V59.7h4.7c2.2,0,4,.3,4,1.4,0,.6-.7,1-1.3,1.2,1.1.2,1.6.7,1.6,1.3,0,1.2-1.7,1.7-4.2,1.7H33.6Z"/><path class="cls-2" d="M3.9,11V4.8H6.4v1H4.8V7.3H6.2v1H4.8v1.8H6.4v1H3.9Z"/><path class="cls-2" d="M6.7,4.8h1l.7,4.5h0l.8-4.5h.9L8.9,11H7.8Z"/><path class="cls-2" d="M10.5,11V4.8H13v1H11.5V7.3h1.4v1H11.5v1.8h1.6v1H10.5Z"/><path class="cls-2" d="M14.6,11h-1V4.8h1.8a.91.91,0,0,1,.8.4,2.13,2.13,0,0,1,.3,1.2,3,3,0,0,1-.2,1c-.1.3-.3.4-.7.5h0c.1,0,.1,0,.2.1s.2.1.3.2a.52.52,0,0,1,.2.4,1.48,1.48,0,0,1,.1.7v1.5c0,.2,0,.3.1.3h-.9a1.27,1.27,0,0,1-.1-.6V9.4c0-.2,0-.3-.1-.4s-.1-.2-.2-.3-.2-.1-.4-.1h-.2Zm0-3.5H15c.1,0,.2,0,.2-.1l.2-.2c0-.1.1-.2.1-.3V6.6c0-.3,0-.5-.1-.6a.52.52,0,0,0-.4-.2h-.4Z"/><path class="cls-2" d="M18,8.9,16.8,4.8h1l.7,2.6.7-2.6h1L18.9,8.9v2.2h-1V8.9Z"/><path class="cls-2" d="M22.2,11.1a1.22,1.22,0,0,1-.9-.3,1.79,1.79,0,0,1-.5-.7,3,3,0,0,1-.2-1V6.7a3,3,0,0,1,.2-1,1.79,1.79,0,0,1,.5-.7,1.5,1.5,0,0,1,1.8,0,1.79,1.79,0,0,1,.5.7,3,3,0,0,1,.2,1V9.1a3,3,0,0,1-.2,1,1.79,1.79,0,0,1-.5.7C22.9,11.1,22.6,11.1,22.2,11.1Zm0-.9a.37.37,0,0,0,.3-.1c.1-.1.1-.2.2-.4s.1-.4.1-.7V7a1.48,1.48,0,0,0-.1-.7.52.52,0,0,0-.2-.4.5.5,0,0,0-.6,0c-.1.1-.1.2-.2.4s-.1.4-.1.7V9a1.48,1.48,0,0,0,.1.7.52.52,0,0,0,.2.4A.37.37,0,0,0,22.2,10.2Z"/><path class="cls-2" d="M24.5,11V4.8h1.3L27,9.1h0V4.8h1V11H26.7L25.5,6.5h0V11Z"/><path class="cls-2" d="M28.8,11V4.8h2.5v1H29.8V7.3h1.4v1H29.8v1.8h1.6v1H28.8Z"/><path class="cls-2" d="M33.2,6c.2-.1.3-.3.5-.4a2.18,2.18,0,0,0,.4-.5h.8v6h-1V6.5c-.1.1-.2.3-.4.4s-.3.2-.4.3V6Z"/><path class="cls-2" d="M37.1,4.9a1.45,1.45,0,0,1,.7.2,1,1,0,0,1,.4.5,2.39,2.39,0,0,1,.2.9V9.2a3,3,0,0,1-.2,1,.92.92,0,0,1-.4.6,1.33,1.33,0,0,1-1.4,0c-.2-.1-.3-.4-.4-.6s-.1-.6-.2-1V6.5a2,2,0,0,1,.2-.9,1,1,0,0,1,.4-.5A1.85,1.85,0,0,1,37.1,4.9Zm0,.9c-.1,0-.2,0-.2.1a.37.37,0,0,0-.1.3V9.1a1.48,1.48,0,0,0,.1.7.44.44,0,0,0,.1.3c.1.1.1.1.2.1s.2,0,.2-.1a.37.37,0,0,0,.1-.3,2,2,0,0,1,.1-.7V6.2a.44.44,0,0,0-.1-.3C37.3,5.9,37.2,5.8,37.1,5.8Z"/><path class="cls-2" d="M39.8,6.1h.7V7.8h1.1v1H40.5v1.7h-.7V8.8H38.7v-1h1.1Z"/><path class="cls-2" d="M24.8,49.2H23.4V50h1.4v1.4h.8V50H27v-.8H25.6V47.8h-.8Zm-2.3-.4c0-2.7-1.5-4.3-3.9-4.3-3.3,0-4.1,2.2-4.1,4.3,0,2.6,1.3,4.3,4,4.3s4-1.7,4-4.3M8.8,31.5l19.9-5.9,2,6.3-10,3,.8,2.6,9.2-2.7,2,6.3-9.2,2.7.9,2.7,10.3-3.1,2,6.3-20.2,6L8.8,31.5m.7,15.9A7.28,7.28,0,0,0,12,46.2v6.6h1.9V44.6H12a7.34,7.34,0,0,1-2.5,1.3v1.5"/><path class="cls-2" d="M16.2,48.7c0-2.8,1.1-3.4,2.4-3.4s2.2,1.1,2.2,3.5c0,1.5-.4,3.4-2.2,3.3-1.8.1-2.4-1.3-2.4-3.4"/><path class="cls-2" d="M3.9,19.3V13.1H5.3v1H4.4v1.5h.8v1H4.4v1.8h.9v1H3.9Z"/><path class="cls-2" d="M5.7,19.3V13.1h.7l.7,4.3h0V13.1h.5v6.2H6.9l-.7-4.5h0v4.5Z"/><path class="cls-2" d="M8.1,19.3V13.1H9.5v1H8.7v1.6h.8v1H8.7v2.7H8.1Z"/><path class="cls-2" d="M9.4,19.3l.7-6.2h.7l.7,6.2H11l-.2-1.4h-.7L10,19.3Zm1.1-5h0L10.2,17h.5Z"/><path class="cls-2" d="M11.8,19.3V13.1h.7l.7,4.3h0V13.1h.5v6.2H13l-.7-4.5h0v4.5Z"/><path class="cls-2" d="M15.8,13.1v1h-.6v5.2h-.5V14.1H14v-1Z"/><path class="cls-2" d="M17.6,17.6a3.08,3.08,0,0,1-.1,1c-.1.2-.1.4-.2.5s-.2.2-.3.2-.2.1-.3.1a.52.52,0,0,1-.4-.2.76.76,0,0,1-.2-.4,1.27,1.27,0,0,1-.1-.6v-.8h.5v.7c0,.1,0,.2.1.2s.1.1.2.1a.22.22,0,0,0,.2-.2,4.33,4.33,0,0,0,.1-.5.9.9,0,0,0-.1-.5c-.1-.1-.1-.3-.2-.4a1.38,1.38,0,0,1-.3-.4c-.1-.1-.2-.3-.3-.4s-.1-.4-.2-.6V14.1c0-.2.1-.4.1-.6a1.38,1.38,0,0,1,.3-.4c.1-.1.2-.1.4-.1a.55.55,0,0,1,.6.4,4.64,4.64,0,0,1,.2,1.4h-.5v-.6c0-.1,0-.2-.1-.2a.1.1,0,0,0-.1-.1.22.22,0,0,0-.2.2.75.75,0,0,0-.1.5.75.75,0,0,0,.1.5c.1.1.1.3.2.4l.3.3c.1.1.2.3.3.4a4.17,4.17,0,0,1,.2.6A2,2,0,0,0,17.6,17.6Z"/><path class="cls-2" d="M19.3,17.3v.8a.37.37,0,0,0,.1.3.1.1,0,0,0,.2,0,.31.31,0,0,1,.1-.2v-.5h.5a2.68,2.68,0,0,1-.2,1.1c-.1.1-.1.2-.2.3a.37.37,0,0,1-.3.1.52.52,0,0,1-.4-.2.76.76,0,0,1-.2-.5,1.48,1.48,0,0,1-.1-.7V16.1a1.48,1.48,0,0,1,.1-.7.76.76,0,0,1,.2-.5.5.5,0,0,1,.8,0,.76.76,0,0,1,.2.5,2,2,0,0,1,.1.8v1h-.9Zm.4-.6v-.6a.37.37,0,0,0-.1-.3.1.1,0,0,0-.1-.1c-.1,0-.1,0-.1.1s-.1.2-.1.3v.6Z"/><path class="cls-2" d="M20.4,15h.2v-.7l.5-.5V15h.3v.7h-.3v2.8h.1v.7h-.3a.35.35,0,0,1-.4-.4c0-.1-.1-.2-.1-.3v-3h-.2V15Z"/><path class="cls-2" d="M22.2,19.3l.7-6.2h.7l.7,6.2h-.6V17.9H23l-.1,1.4Zm1.1-5h0L23,17h.5Z"/><path class="cls-2" d="M24.7,13.1h.9a.52.52,0,0,1,.4.2,1.63,1.63,0,0,1,.3.6,3.08,3.08,0,0,1,.1,1v2.6a1.7,1.7,0,0,1-.1.7c0,.2-.1.4-.1.6s-.1.3-.3.4a.52.52,0,0,1-.4.2h-.9V13.1Zm.5,5.3h.3c.1,0,.1,0,.2-.1s.1-.2.1-.4a2,2,0,0,1,.1-.7V14.7a4.33,4.33,0,0,0-.1-.5c-.1-.1-.1-.2-.2-.2h-.3v4.4Z"/><path class="cls-2" d="M28.6,13.1v5.1c0,.2-.1.4-.1.6a1.38,1.38,0,0,1-.3.4.52.52,0,0,1-.4.2c-.3,0-.5-.2-.7-.5a4.64,4.64,0,0,1-.2-1.4V13.1h.5v4.3c0,.4,0,.7.1.8s.1.2.2.2.2-.1.3-.3a1.72,1.72,0,0,0,.1-.8V13h.5Z"/><path class="cls-2" d="M29.1,19.3V13.1h.5v5.2h.8v1Z"/><path class="cls-2" d="M32,13.1v1h-.6v5.2h-.5V14.1h-.6v-1Z"/><path class="cls-2" d="M32.3,19.3V13.1h1.4v1h-.9v1.5h.8v1h-.8v1.8h.9v1H32.3Z"/><path class="cls-2" d="M35.7,17.6a3.08,3.08,0,0,1-.1,1c-.1.2-.1.4-.2.5s-.2.2-.3.2-.2.1-.3.1a.52.52,0,0,1-.4-.2.76.76,0,0,1-.2-.4,1.27,1.27,0,0,1-.1-.6v-.8h.5v.7c0,.1,0,.2.1.2s.1.1.2.1a.22.22,0,0,0,.2-.2,4.33,4.33,0,0,0,.1-.5.9.9,0,0,0-.1-.5c-.1-.1-.1-.3-.2-.4a1.38,1.38,0,0,1-.3-.4c-.1-.1-.2-.3-.3-.4a1.42,1.42,0,0,1-.2-.6,2,2,0,0,1-.1-.8v-.7c0-.2.1-.4.1-.6a1.38,1.38,0,0,1,.3-.4c.1-.1.2-.1.4-.1a.55.55,0,0,1,.6.4,4.64,4.64,0,0,1,.2,1.4h-.5V14c0-.1,0-.2-.1-.2a.1.1,0,0,0-.1-.1.22.22,0,0,0-.2.2,4.33,4.33,0,0,0-.1.5.75.75,0,0,0,.1.5c.1.1.1.3.2.4l.3.3c.1.1.2.3.3.4a1.07,1.07,0,0,1,.2.6Z"/><path class="cls-2" d="M36.8,14.2c.1-.1.2-.3.3-.4a.76.76,0,0,0,.2-.5h.5v6h-.5V14.7c-.1.1-.1.3-.2.4s-.1.2-.2.3V14.2Z"/><path class="cls-2" d="M39.1,13.2a.52.52,0,0,1,.4.2.76.76,0,0,1,.2.5,2.48,2.48,0,0,1,.1.9v2.7a3.08,3.08,0,0,1-.1,1,.85.85,0,0,1-.2.6.5.5,0,0,1-.8,0,1.07,1.07,0,0,1-.2-.6c0-.3-.1-.6-.1-1V14.8c0-.4.1-.7.1-.9s.1-.4.2-.5A.52.52,0,0,1,39.1,13.2Zm0,.9c-.1,0-.1,0-.1.1s-.1.2-.1.3v3.6c0,.2,0,.3.1.3a.1.1,0,0,0,.1.1c.1,0,.1,0,.1-.1s.1-.2.1-.3V14.5c0-.2,0-.3-.1-.3Z"/><path class="cls-2" d="M40.6,14.4H41v1.7h.6v1H41v1.7h-.4V17.1H40v-1h.6Z"/></g></g></svg>